<?xml version="1.0" encoding="UTF-8" standalone="no"?>
<!-- Created with Inkscape (http://www.inkscape.org/) -->

<svg
   width="51.252426mm"
   height="51.25243mm"
   viewBox="0 0 51.252426 51.25243"
   version="1.1"
   id="svg1"
   xml:space="preserve"
   xmlns="http://www.w3.org/2000/svg"
   xmlns:svg="http://www.w3.org/2000/svg"><defs
     id="defs1" /><g
     id="layer1"
     transform="translate(-2110.4612,2038.159)"><path
       d="m 2122.7988,-2036.409 c -5.8655,0 -10.5877,4.7217 -10.5877,10.5872 v 26.5776 c 0,2.9328 1.1802,5.58 3.0938,7.4938 l 41.5648,-41.5647 c -1.9137,-1.9137 -4.5606,-3.0939 -7.4934,-3.0939 z"
       style="opacity:1;fill:#c83737;fill-opacity:1;stroke:none;stroke-width:3.5;stroke-linecap:round;stroke-linejoin:round;stroke-dasharray:none;stroke-opacity:1"
       id="path377" /><path
       d="m 2149.3758,-1988.6566 c 5.8656,0 10.5878,-4.7217 10.5878,-10.5872 v -26.5775 c 0,-2.9328 -1.1802,-5.5801 -3.0939,-7.4938 l -41.5648,41.5647 c 1.9138,1.9137 4.5606,3.0938 7.4934,3.0938 z"
       style="opacity:1;fill:#962929;fill-opacity:1;stroke:#962929;stroke-width:3.5;stroke-linecap:round;stroke-linejoin:round;stroke-dasharray:none;stroke-opacity:1"
       id="path378" /><path
       id="path391"
       style="opacity:1;fill:none;fill-opacity:1;stroke:#962929;stroke-width:3.5;stroke-linecap:round;stroke-linejoin:round;stroke-dasharray:none;stroke-opacity:1;paint-order:normal"
       d="m 2122.7991,-2036.409 c -5.8657,0 -10.5878,4.7217 -10.5878,10.5872 v 26.5776 c 0,2.9328 1.1801,5.58 3.0939,7.4938 1.9137,1.9137 4.5606,3.0938 7.4934,3.0938 h 26.5774 c 5.8656,0 10.5878,-4.7217 10.5878,-10.5872 v -26.5775 c 0,-2.9328 -1.1802,-5.5801 -3.0939,-7.4938 -1.9137,-1.9137 -4.5606,-3.0939 -7.4934,-3.0939 z" /></g></svg>
