<?xml version="1.0" encoding="UTF-8" standalone="no"?>
<!-- Created with Inkscape (http://www.inkscape.org/) -->

<svg
   width="35.085197mm"
   height="35.085716mm"
   viewBox="0 0 35.085197 35.085716"
   version="1.1"
   id="svg1"
   xml:space="preserve"
   xmlns="http://www.w3.org/2000/svg"
   xmlns:svg="http://www.w3.org/2000/svg"><defs
     id="defs1" /><g
     id="layer1"
     transform="translate(-2261.5918,2633.5649)"><path
       id="path157"
       style="opacity:1;fill:#ffffff;fill-opacity:1;stroke:none;stroke-width:15;stroke-linecap:round;stroke-linejoin:round;stroke-dasharray:none;stroke-opacity:1"
       d="m 2279.1345,-2633.5648 a 2.1731984,2.1731984 0 0 0 -2.0613,1.4847 c -0.1967,0.5892 -0.3881,1.2076 -0.5829,1.8052 a 3.9629449,3.9629449 0 0 1 -5.5638,2.3048 c -0.5603,-0.2849 -1.1328,-0.5865 -1.6884,-0.8641 a 2.1731984,2.1731984 0 0 0 -2.9158,2.9147 c 0.2776,0.5556 0.5792,1.1283 0.8641,1.6886 a 3.9629449,3.9629449 0 0 1 -2.3043,5.5642 c -0.5977,0.1948 -1.2161,0.3862 -1.8052,0.5829 a 2.1731984,2.1731984 0 0 0 -5e-4,4.1225 c 0.5892,0.1967 1.2076,0.3881 1.8052,0.5829 a 3.9629449,3.9629449 0 0 1 2.3053,5.5638 c -0.2849,0.5604 -0.587,1.1329 -0.8646,1.6885 a 2.1731984,2.1731984 0 0 0 2.9152,2.9157 c 0.5557,-0.2776 1.1283,-0.5796 1.6886,-0.8646 a 3.9629449,3.9629449 0 0 1 5.5642,2.3043 c 0.1948,0.5977 0.3857,1.2165 0.5824,1.8057 a 2.1731984,2.1731984 0 0 0 4.1231,5e-4 c 0.1966,-0.5892 0.3875,-1.2075 0.5823,-1.8052 a 3.9629449,3.9629449 0 0 1 5.5642,-2.3053 c 0.5604,0.2849 1.1329,0.587 1.6886,0.8646 a 2.1731984,2.1731984 0 0 0 2.9158,-2.9152 c -0.2776,-0.5556 -0.5798,-1.1283 -0.8647,-1.6886 a 3.9629449,3.9629449 0 0 1 2.3043,-5.5642 c 0.5977,-0.1948 1.2161,-0.3857 1.8052,-0.5824 a 2.1731984,2.1731984 0 0 0 5e-4,-4.123 c -0.5892,-0.1966 -1.2075,-0.3881 -1.8052,-0.5829 a 3.9629449,3.9629449 0 0 1 -2.3053,-5.5637 c 0.2849,-0.5603 0.5871,-1.133 0.8646,-1.6886 a 2.1731984,2.1731984 0 0 0 -2.9147,-2.9157 c -0.5556,0.2776 -1.1282,0.5796 -1.6886,0.8646 a 3.9629449,3.9629449 0 0 1 -5.5642,-2.3043 c -0.1948,-0.5977 -0.3862,-1.216 -0.5828,-1.8052 a 2.1731984,2.1731984 0 0 0 -2.0613,-1.4852 z m 0,10.457 a 7.085342,7.085342 0 0 1 7.0852,7.0852 7.085342,7.085342 0 0 1 -7.0852,7.0853 7.085342,7.085342 0 0 1 -7.0853,-7.0853 7.085342,7.085342 0 0 1 7.0853,-7.0852 z" /></g></svg>
